HIERARCHY
ROOT Hips
{
     OFFSET 1.88212 96.90440 -13.34250
     CHANNELS 6 Xposition Yposition Zposition Zrotation Xrotation Yrotation
     JOINT Spine
     {
          OFFSET 0.00000 11.89050 0.00000
          CHANNELS 3 Zrotation Xrotation Yrotation
          JOINT Spine1
          {
               OFFSET -0.00000 25.65740 0.12766
               CHANNELS 3 Zrotation Xrotation Yrotation
               JOINT HEad
               {
                    OFFSET 0.00000 8.73416 0.01134
                    CHANNELS 3 Zrotation Xrotation Yrotation
                    End Site
                    {
                         OFFSET -0.29000 12.77420 2.51395
                    }
               }
               JOINT LeftShoulder1
               {
                    OFFSET 8.99000 -0.36225 -0.22000
                    CHANNELS 3 Zrotation Xrotation Yrotation
                    JOINT LeftArm
                    {
                         OFFSET 10.28270 -0.00338 0.32212
                         CHANNELS 3 Zrotation Xrotation Yrotation
                         JOINT LeftForeArm
                         {
                              OFFSET 32.76690 0.09914 -1.42434
                              CHANNELS 3 Zrotation Xrotation Yrotation
                              JOINT LeftHand
                              {
                                   OFFSET 27.56430 0.08536 1.02216
                                   CHANNELS 3 Zrotation Xrotation Yrotation
                                   End Site
                                   {
                                        OFFSET 16.74430 -0.60000 1.50291
                                   }
                              }
                         }
                    }
               }
               JOINT RightShoulder
               {
                    OFFSET -8.99000 -0.36225 -0.22000
                    CHANNELS 3 Zrotation Xrotation Yrotation
                    JOINT RightArm
                    {
                         OFFSET -10.28270 -0.00338 0.32212
                         CHANNELS 3 Zrotation Xrotation Yrotation
                         JOINT RightForeArm
                         {
                              OFFSET -32.89710 0.09914 -1.42434
                              CHANNELS 3 Zrotation Xrotation Yrotation
                              JOINT RightHand
                              {
                                   OFFSET -27.49210 0.08536 1.02216
                                   CHANNELS 3 Zrotation Xrotation Yrotation
                                   End Site
                                   {
                                        OFFSET -16.63120 -0.60000 1.50291
                                   }
                              }
                         }
                    }
               }
          }
     }
     JOINT LeftUpLeg
     {
          OFFSET 8.94580 -8.66707 0.10165
          CHANNELS 3 Zrotation Xrotation Yrotation
          JOINT LeftLeg
          {
               OFFSET 0.00000 -44.42270 1.37270
               CHANNELS 3 Zrotation Xrotation Yrotation
               JOINT LeftFoot
               {
                    OFFSET -0.25355 -42.09240 -1.46059
                    CHANNELS 3 Zrotation Xrotation Yrotation
                    JOINT LeftToes
                    {
                         OFFSET -0.04000 -4.41509 8.49910
                         CHANNELS 3 Zrotation Xrotation Yrotation
                         End Site
                         {
                              OFFSET 0.08000 -0.04745 9.77979
                         }
                    }
               }
          }
     }
     JOINT RightUpLeg
     {
          OFFSET -8.94580 -8.66707 0.10165
          CHANNELS 3 Zrotation Xrotation Yrotation
          JOINT RightLeg
          {
               OFFSET 0.00000 -44.42270 1.37270
               CHANNELS 3 Zrotation Xrotation Yrotation
               JOINT RightFoot
               {
                    OFFSET 0.25355 -42.09240 -1.46059
                    CHANNELS 3 Zrotation Xrotation Yrotation
                    JOINT RightToes
                    {
                         OFFSET 0.04000 -4.41509 8.49910
                         CHANNELS 3 Zrotation Xrotation Yrotation
                         End Site
                         {
                              OFFSET -0.08000 -0.13745 9.77979
                         }
                    }
               }
          }
     }
}
MOTION
Frames: 19
Frame Time: 0.01667
87.77891 71.37955 -107.31288 -8.67499 -4.51761 -21.22423 0.72311 16.27032 3.98636 -0.00594 0.03811 0.02885 5.06660 0.84267 3.77475 -4.29115 15.21449 1.97319 -110.55745 -56.91625 -87.08727 -39.44797 59.06714 -103.47973 7.60855 10.13700 1.64102 17.49959 17.00170 6.96059 66.45367 -19.65892 73.37675 19.60758 46.51498 117.60950 -6.91363 10.04515 -0.82426 2.15944 -41.67247 19.33976 14.97945 72.82693 8.13456 56.93515 -0.00035 -0.00102 -69.41296 -38.70161 -21.09732 -35.21401 -11.41900 -2.77629 8.14547 39.42752 2.01194 23.24315 -0.11025 -0.13283 6.27808 6.24041 -18.25769 
90.50058 74.72798 -105.86511 -9.36671 -3.99591 -23.91104 2.58318 14.59030 3.32431 -0.00551 0.03408 0.02642 3.74799 5.49360 3.66734 -6.21672 16.14965 4.38385 -109.49596 -56.84944 -86.28079 -39.06939 59.24294 -103.94213 7.10578 9.66135 -0.31067 15.26480 18.77641 8.84713 66.66360 -20.82247 72.92140 20.92265 46.21628 117.10950 -6.12056 11.72286 0.60348 0.73005 -38.09543 19.29912 14.27747 66.29083 8.79582 57.35370 0.01450 -0.01049 -73.64672 -19.04238 -25.34615 -33.23712 -11.16686 -4.68472 12.30659 44.74290 1.22963 27.07533 0.14805 0.12064 12.52946 13.70791 -24.30911 
92.92408 78.08707 -104.58897 -9.77918 -3.59173 -26.32362 4.01039 13.35746 2.86949 -0.00623 0.03023 0.02436 2.32647 9.41065 3.65446 -7.87945 16.58734 6.36959 -107.89686 -56.79525 -84.82361 -38.41055 59.36726 -104.76897 7.67131 9.67432 1.05496 13.39465 19.91311 10.50679 66.62875 -21.84672 72.12224 22.18083 46.01915 116.73521 -6.29236 9.60832 -0.36558 -0.44706 -35.09964 19.48082 15.44572 60.32118 5.08159 38.54930 -0.20781 0.83265 -52.04081 -24.53825 -17.89162 -30.67838 -11.08508 -7.14599 15.32324 50.81591 1.06326 17.02631 -0.28471 -0.46013 8.51668 3.62365 -15.11523 
95.07423 81.36971 -103.55194 -9.93612 -3.27716 -28.46771 5.02004 12.46387 2.57980 -0.00712 0.02688 0.02249 0.90062 12.66384 3.72890 -9.28579 16.64796 7.97217 -106.00537 -56.71056 -83.05899 -37.60056 59.42612 -105.82710 7.52993 9.52549 -0.17057 11.89391 20.56491 11.92553 66.40318 -22.75598 71.06196 23.26401 45.92764 116.54536 -5.67489 10.69263 0.37044 -1.55725 -32.51324 19.66438 16.90307 54.05441 -0.27093 19.55036 -0.77934 0.96411 -33.98952 -3.83501 -24.19596 -27.46878 -11.04324 -9.92667 16.89207 58.41176 1.05475 28.00811 0.23556 0.65114 7.77300 12.51158 -17.23844 
97.11413 84.61144 -102.81706 -9.82601 -3.03080 -30.40112 5.59254 11.83325 2.45636 -0.00887 0.02417 0.01961 -0.43351 15.31773 3.87652 -10.43881 16.48052 9.10171 -104.39720 -56.77231 -81.71820 -37.07711 59.37131 -106.55842 7.80179 9.75268 0.78910 10.81588 20.86296 12.95307 65.97106 -23.51180 69.83965 24.14297 45.87931 116.49834 -5.88966 9.71697 -0.43339 -2.17014 -30.16544 18.92361 18.17157 48.65854 -7.44211 12.55193 -0.55685 0.24889 -27.16092 -11.48526 -12.36345 -23.63879 -10.60386 -12.69712 18.31833 66.10401 1.45741 29.74707 0.02916 0.18499 12.23163 13.34466 -12.20026 
98.92178 87.52429 -102.37033 -9.47194 -2.82420 -32.17734 5.75273 11.40411 2.50703 -0.00871 0.02231 0.01757 -1.62762 17.41755 4.07638 -11.33731 16.14183 9.82736 -103.00117 -56.82866 -80.70152 -36.64798 59.26815 -107.06866 7.63726 9.54792 0.01208 9.91851 20.86917 13.70511 65.61625 -24.12253 68.60694 24.82748 45.90414 116.53669 -5.41542 10.30644 0.05080 -2.56574 -28.02555 17.20077 17.93092 43.43853 -13.54707 5.04401 -0.60867 0.24915 -11.38003 0.17208 -17.61082 -19.16397 -9.42820 -15.12198 16.47543 70.20379 3.21789 21.71679 -0.14489 -0.35627 8.81884 4.93142 -10.03771 
100.52972 90.06593 -102.21651 -8.92189 -2.63241 -33.83923 5.54806 11.12571 2.72890 -0.00839 0.01989 0.01568 -2.64943 19.00522 4.32699 -11.96954 15.60175 10.17568 -101.72222 -56.90313 -79.85152 -36.30365 59.10402 -107.33189 7.82104 9.66589 0.55571 9.28919 20.56842 14.23598 65.26367 -24.58995 67.34615 25.35159 45.97465 116.56754 -5.58880 9.75981 -0.27012 -2.97423 -26.07347 14.46907 17.10661 38.27444 -18.37424 -3.05749 -0.69285 0.18028 -9.55774 -2.64675 -4.37669 -14.29330 -7.36552 -17.01291 11.09886 70.88419 7.22342 20.57634 -0.03257 -0.05674 9.05232 3.43903 -7.48220 
101.93926 92.18712 -102.29233 -6.51733 -2.44131 -36.49437 3.41686 10.04410 4.35643 -0.00759 0.01823 0.01459 -3.46462 20.11810 4.61729 -12.25577 14.95611 10.26638 -100.73670 -56.85003 -79.28057 -36.10971 58.90739 -107.27752 7.68749 9.44799 -0.06450 8.95904 20.06204 14.53339 64.92287 -24.90987 66.20608 25.71980 46.05118 116.55202 -5.27515 10.19885 0.15020 -4.17705 -25.33327 12.05086 14.23351 33.95963 -19.58606 -9.93616 -0.51267 0.05725 -1.12064 0.37529 1.50672 -10.77034 -5.68607 -17.37661 4.46602 68.63226 11.85142 17.44321 -0.03235 -0.06069 8.69877 -16.35831 2.70109 
103.14394 93.86560 -102.54480 -4.38228 -2.28458 -38.89420 1.42100 9.11710 5.81648 -0.00708 0.01486 0.01093 -4.08423 20.81112 4.98502 -12.14965 14.15487 9.91825 -99.88348 -57.01112 -78.77236 -35.99870 58.59182 -107.05714 7.76410 9.68489 0.12491 8.96686 19.27767 14.63999 64.56499 -25.02223 65.12746 25.97165 46.12540 116.44054 -5.43401 9.94759 0.20458 -5.10885 -24.61547 8.55529 12.68043 29.80304 -19.63022 -18.04006 -0.49554 -0.00365 4.79600 -0.00102 7.99256 -7.44812 -2.97861 -17.24941 -0.98783 63.89745 15.07181 16.63294 -0.02894 -0.01265 0.05733 -27.46357 0.48614 
104.18745 95.08484 -102.91928 -2.52686 -2.12385 -41.10340 -0.42484 8.31139 7.12335 -0.00629 0.01144 0.00757 -4.51878 21.15039 5.45193 -11.65450 13.27149 9.29536 -99.21329 -57.31919 -78.36107 -36.05154 58.16943 -106.67039 7.55155 9.54552 -0.39008 9.31862 18.31526 14.52385 64.19695 -24.85523 64.23241 26.04410 46.17312 116.30259 -5.29810 10.33832 0.71120 -5.76371 -24.00379 4.12378 12.08049 26.25223 -18.42346 -26.86405 -0.44969 -0.08849 22.90990 0.82033 -1.35265 -4.81729 -0.34508 -17.15235 -4.54515 56.74740 15.69341 16.49688 -0.11884 -0.01906 -5.70311 -38.47899 3.07938 
105.14194 95.93578 -103.37775 -0.96291 -1.93251 -43.18109 -2.08878 7.61285 8.30381 -0.00555 0.00851 0.00514 -4.79704 21.17410 6.02026 -10.82527 12.38860 8.58282 -98.78763 -57.66555 -78.15091 -36.32302 57.61368 -106.10308 7.45360 9.72943 -0.39526 9.81558 17.27888 14.21908 64.03522 -24.44437 63.64082 25.99697 46.22628 116.16288 -5.53779 10.16344 0.94389 -6.13806 -23.56662 -1.09800 12.01959 23.63587 -16.33801 -35.93929 -0.39303 -0.17169 23.09936 1.94977 9.56785 -2.77383 2.20530 -17.01104 -6.98716 48.44640 14.82471 12.67069 -0.14145 0.10572 -6.93499 -47.74813 -4.24270 
106.30087 96.23345 -103.90337 0.29388 -1.70618 -45.23548 -3.47850 7.09609 8.99011 -0.00475 0.00617 0.00347 -5.17974 20.84121 7.14990 -3.83521 11.56937 -3.24968 -109.08205 -68.41213 -82.91366 -36.81363 57.23898 -106.05256 7.09213 9.36768 -0.84223 10.42786 16.31283 13.88922 64.00132 -23.65984 63.50486 25.76255 46.33946 116.09853 -5.71727 10.71685 1.28338 -6.22616 -23.46069 -6.93962 10.27555 22.31017 -13.44125 -30.42476 0.21424 0.09783 22.20304 2.55478 -5.44494 -1.18380 4.65651 -16.77415 -8.54198 39.80976 13.49594 7.66323 -0.16179 0.20147 11.01391 -33.95275 -10.59746 
107.53730 96.24454 -104.46741 1.26239 -1.46053 -47.29502 -4.62729 6.77570 9.26260 -0.00459 0.00698 0.00554 -5.62808 20.18973 8.76060 -3.68037 10.88864 -1.86132 -108.03580 -67.87261 -82.54330 -37.52457 56.81734 -105.79375 6.98637 9.23987 -0.69040 11.02284 15.55889 13.75699 64.16492 -22.81923 63.71951 25.43703 46.53233 116.09678 -6.04269 10.43261 1.20549 -5.98832 -23.86574 -13.22992 9.10546 21.78761 -10.72850 -25.52948 0.24942 0.07932 11.33359 2.23701 2.51485 0.03481 7.03524 -16.38759 -9.64544 31.16775 11.70885 7.04148 -0.10310 0.02206 -11.64092 -43.10908 -12.89407 
108.87904 96.01408 -105.02734 2.05381 -1.20065 -49.38488 -5.68957 6.83118 9.22079 -0.00375 0.02937 -0.01523 -6.12050 19.08501 10.70926 -3.46372 9.91224 -0.21045 -107.21078 -67.38163 -82.39904 -38.37517 56.30517 -105.40406 6.81150 9.06269 -0.59930 12.63794 14.13811 10.57143 63.81076 -18.71210 64.90905 25.05155 46.72885 115.96991 -6.35782 10.28276 1.15152 -6.04117 -24.35456 -19.46060 7.88370 20.99574 -8.06073 -20.24606 0.28923 0.03221 1.32777 -1.58104 4.80037 1.13516 9.52484 -15.95219 -10.69514 22.62871 9.80309 5.82339 -0.05343 0.04651 -25.80130 -49.66712 -15.58489 
110.32619 95.61575 -105.57513 2.69760 -0.94785 -51.48875 -6.65111 7.26047 8.88119 -0.00033 0.03060 -0.01454 -6.65886 17.59584 12.90404 -3.15530 8.76805 1.61114 -106.78704 -66.90433 -82.57093 -39.32006 55.73642 -104.90065 6.61264 8.79036 -0.48451 13.72253 12.75507 8.95491 64.50701 -16.78003 65.85604 25.63003 48.03740 115.36962 -6.69783 10.19759 1.05745 -6.26192 -24.86806 -25.55708 7.01950 20.18442 -5.45636 -14.92701 0.28564 -0.01084 -6.75247 -8.16582 4.03659 2.10199 12.10555 -15.47577 -11.65557 14.16980 7.79688 4.22540 -0.05991 0.06636 -30.39898 -52.35378 -15.11848 
111.68733 95.15211 -106.09376 3.23361 -0.72045 -53.59043 -7.55013 7.67153 8.59772 -0.00075 0.00124 0.00189 -7.07298 16.15808 15.01422 -2.71464 7.83281 3.34652 -106.56844 -66.41639 -82.87987 -40.29219 55.14644 -104.37218 6.42349 8.56852 -0.33087 14.55029 11.69381 8.13188 65.39362 -15.53129 66.60704 26.14769 49.23408 114.75303 -6.99062 10.08912 0.96539 -6.50343 -25.33385 -31.42856 6.59727 19.57652 -2.81406 -9.72456 0.25527 -0.03700 -13.40176 -12.66450 5.19431 2.64999 14.60747 -14.81931 -12.30066 6.05971 5.70304 2.77475 -0.05886 0.06194 -24.09679 -50.48141 -11.85508 
113.01254 93.86699 -106.57431 3.61402 -0.58034 -55.65788 -8.55087 8.24166 7.91462 -0.00852 0.01705 -0.02275 -7.49327 14.89916 17.15132 -2.54741 7.77749 2.36089 -109.28099 -67.70672 -86.64902 -40.92859 54.80204 -102.17450 7.01508 9.25010 -0.78792 15.24840 10.39856 4.99821 66.72755 -11.33887 68.16118 26.32353 49.22939 112.94901 -6.19406 12.10824 -3.88248 -6.28594 -25.74499 -37.04773 5.61041 18.84206 0.81371 -4.16431 0.21839 -0.07734 -17.32684 -9.39475 9.06304 2.78671 17.09166 -13.91563 -12.04480 -1.67646 2.45684 2.90135 0.00145 -0.02424 -17.18127 -44.02059 -9.22675 
114.32755 92.77151 -106.95226 3.85981 -0.55577 -57.66505 -9.66794 8.95913 6.84424 -0.00731 0.02158 -0.02285 -7.94956 13.88103 19.23787 -2.56408 8.23083 -0.25863 -114.53893 -70.01093 -93.17165 -41.44788 54.70639 -98.57716 8.29584 10.60896 -2.36061 15.70437 8.97241 0.36204 68.27097 -5.03261 69.91862 25.94093 48.18076 110.35925 -3.79904 15.33979 -10.50298 -5.64445 -26.04402 -42.24536 4.33119 17.92859 5.13640 1.63481 0.16504 -0.09918 -21.19106 -1.24794 13.76627 2.44445 19.39413 -12.76731 -11.02762 -8.84242 -1.62578 3.45151 0.02746 -0.04586 -11.78554 -34.28345 -8.38149 
115.63354 91.74065 -107.25321 3.96120 -0.63314 -59.59470 -10.86442 9.82860 5.40158 -0.00521 0.02133 -0.02252 -8.47542 13.07866 21.28361 -2.58936 8.17316 -0.75669 -117.74482 -71.27741 -97.39611 -42.18627 54.48695 -95.36871 9.61598 11.91057 -3.75770 16.17942 7.90858 -1.91457 69.55902 -0.49821 70.74193 24.80706 46.27128 107.46420 0.45526 19.52857 -17.36836 -4.67814 -26.18953 -46.92885 2.93065 16.81350 9.93504 7.67144 0.10973 -0.10780 -26.72005 4.45792 17.08010 1.63057 21.38809 -11.37204 -9.28917 -15.22377 -6.27656 3.46900 0.01628 -0.02248 -7.98732 -22.55602 -9.09322 
